<svg width="92" height="24" viewBox="0 0 92 24" fill="none" xmlns="http://www.w3.org/2000/svg">
<path d="M90.1414 0H1.85859C0.832117 0 0 0.836998 0 1.86949V21.6861C0 22.7186 0.832117 23.5556 1.85859 23.5556H90.1414C91.1679 23.5556 92 22.7186 92 21.6861V1.86949C92 0.836998 91.1679 0 90.1414 0Z" fill="url(#paint0_linear_1170_1070)"/>
<path d="M29 1H88.1173C89.1569 1 90 1.42737 90 1.95455V21.0455C90 21.5726 89.1569 22 88.1173 22H29V1Z" fill="black"/>
<path d="M63.4258 7.92773L61.1055 15H59.2363L62.4062 6.46875H63.5957L63.4258 7.92773ZM65.3535 15L63.0273 7.92773L62.8398 6.46875H64.041L67.2285 15H65.3535ZM65.248 11.8242V13.2012H60.7422V11.8242H65.248Z" fill="#F8E531"/>
<path d="M52.2695 6.46875H55.4512C56.1035 6.46875 56.6641 6.56641 57.1328 6.76172C57.6055 6.95703 57.9688 7.24609 58.2227 7.62891C58.4766 8.01172 58.6035 8.48242 58.6035 9.04102C58.6035 9.49805 58.5254 9.89062 58.3691 10.2188C58.2168 10.543 58 10.8145 57.7188 11.0332C57.4414 11.248 57.1152 11.4199 56.7402 11.5488L56.1836 11.8418H53.418L53.4062 10.4707H55.4629C55.7715 10.4707 56.0273 10.416 56.2305 10.3066C56.4336 10.1973 56.5859 10.0449 56.6875 9.84961C56.793 9.6543 56.8457 9.42773 56.8457 9.16992C56.8457 8.89648 56.7949 8.66016 56.6934 8.46094C56.5918 8.26172 56.4375 8.10938 56.2305 8.00391C56.0234 7.89844 55.7637 7.8457 55.4512 7.8457H54.0273V15H52.2695V6.46875ZM57.0391 15L55.0938 11.1973L56.9512 11.1855L58.9199 14.918V15H57.0391Z" fill="#F8E531"/>
<path d="M48.6426 6.46875V15H46.8906V6.46875H48.6426ZM51.2676 6.46875V7.8457H44.3066V6.46875H51.2676Z" fill="#F8E531"/>
<path d="M45.1562 13.6289V15H40.8613V13.6289H45.1562ZM41.4297 6.46875V15H39.6719V6.46875H41.4297Z" fill="#F8E531"/>
<path d="M36.4727 6.46875H38.2246V12.1055C38.2246 12.7617 38.084 13.3145 37.8027 13.7637C37.5254 14.2129 37.1406 14.5508 36.6484 14.7773C36.1602 15.0039 35.5977 15.1172 34.9609 15.1172C34.3242 15.1172 33.7578 15.0039 33.2617 14.7773C32.7695 14.5508 32.3828 14.2129 32.1016 13.7637C31.8242 13.3145 31.6855 12.7617 31.6855 12.1055V6.46875H33.4434V12.1055C33.4434 12.4883 33.5039 12.8008 33.625 13.043C33.7461 13.2852 33.9199 13.4629 34.1465 13.5762C34.377 13.6895 34.6484 13.7461 34.9609 13.7461C35.2812 13.7461 35.5527 13.6895 35.7754 13.5762C36.002 13.4629 36.1738 13.2852 36.291 13.043C36.4121 12.8008 36.4727 12.4883 36.4727 12.1055V6.46875Z" fill="#F8E531"/>
<path d="M16.9785 7.04688V17H14.9277V7.04688H16.9785ZM22.9395 7.04688L18.9951 11.9619L16.7188 14.4092L16.3496 12.4678L17.8877 10.3623L20.4238 7.04688H22.9395ZM20.6084 17L17.6758 12.3994L19.1934 11.1279L23.0352 17H20.6084Z" fill="black"/>
<path d="M13.6562 13.2812V14.8262H6.48535L6.38965 13.6299L10.5391 7.04688H12.1045L10.4092 9.88379L8.34473 13.2812H13.6562ZM12.5283 7.04688V17H10.5596V7.04688H12.5283Z" fill="black"/>
<path d="M70 15V6H71.8094V9.71339H75.4823V6H77.2875V15H75.4823V11.2822H71.8094V15H70ZM81.813 15H78.7793V6H81.838C82.6988 6 83.4399 6.18019 84.061 6.54053C84.6824 6.89795 85.16 7.41212 85.4944 8.08301C85.8314 8.75391 86 9.55664 86 10.4912C86 11.4287 85.8314 12.2344 85.4944 12.9082C85.16 13.582 84.6795 14.0991 84.0527 14.4595C83.4288 14.8198 82.6821 15 81.813 15ZM80.5887 13.3696H81.7377C82.2726 13.3696 82.7226 13.27 83.0875 13.0708C83.4552 12.8687 83.731 12.5566 83.9149 12.1348C84.1015 11.71 84.1949 11.1621 84.1949 10.4912C84.1949 9.82617 84.1015 9.28273 83.9149 8.86084C83.731 8.43897 83.4565 8.12843 83.0916 7.9292C82.7267 7.72998 82.2768 7.63038 81.742 7.63038H80.5887V13.3696Z" fill="#F8E531"/>
<defs>
<linearGradient id="paint0_linear_1170_1070" x1="0" y1="11.7778" x2="92" y2="11.7778" gradientUnits="userSpaceOnUse">
<stop stop-color="#E1A232"/>
<stop offset="0.495" stop-color="#FAF287"/>
<stop offset="1" stop-color="#DF9A32"/>
</linearGradient>
</defs>
</svg>
