<svg width="17" height="15" viewBox="0 0 17 15" fill="none" xmlns="http://www.w3.org/2000/svg">
<path d="M16.5 6.95555V8.02285C16.4575 8.30127 16.4215 8.57969 16.3714 8.85561C16.1382 10.1286 15.5609 11.3179 14.6989 12.3008C14.5574 12.4651 14.4069 12.6219 14.2512 12.7736C14.202 12.8277 14.1419 12.8713 14.0747 12.9018C14.0074 12.9324 13.9345 12.9492 13.8604 12.9512C13.7862 12.9532 13.7125 12.9403 13.6436 12.9135C13.5748 12.8866 13.5123 12.8463 13.46 12.7949C13.4081 12.7452 13.3668 12.6859 13.3386 12.6204C13.3104 12.555 13.2959 12.4847 13.2959 12.4137C13.2959 12.3427 13.3104 12.2724 13.3386 12.2069C13.3668 12.1415 13.4081 12.0821 13.46 12.0324C14.0015 11.4936 14.4475 10.8711 14.78 10.19C15.0686 9.58873 15.2575 8.94654 15.3396 8.28747C15.545 6.77048 15.1759 5.23253 14.3014 3.96186C14.0724 3.62198 13.7752 3.33478 13.5166 3.00869C13.4261 2.91156 13.3566 2.79768 13.3121 2.67383C13.2814 2.56108 13.292 2.44142 13.342 2.33544C13.392 2.22946 13.4783 2.14378 13.5861 2.09315C13.689 2.03526 13.8093 2.01388 13.9266 2.03262C14.0438 2.05137 14.1508 2.10909 14.2294 2.19599C14.5895 2.57786 14.9275 2.97898 15.2418 3.39748C15.8663 4.29674 16.27 5.32411 16.4215 6.39996C16.4537 6.58432 16.4743 6.76993 16.5 6.95555ZM9.90163 14.3551C9.90163 14.606 9.83473 14.8217 9.58901 14.9421C9.3433 15.0625 9.12974 14.981 8.93419 14.8279L5.66524 12.277C5.022 11.7753 4.39162 11.2812 3.75096 10.7895C3.6831 10.7419 3.60172 10.716 3.5181 10.7155C2.74621 10.7155 1.98204 10.7155 1.21401 10.7155C0.817777 10.7155 0.474285 10.6039 0.225994 10.2841C0.0848024 10.1105 0.0065433 9.89614 0.00343062 9.67458C0.00343062 8.21975 -0.00428828 6.76366 0.00343062 5.30883C0.00343062 4.70056 0.509019 4.27665 1.19857 4.27289C1.97046 4.27289 2.73463 4.27289 3.50267 4.27289C3.60129 4.26939 3.69646 4.23657 3.7754 4.17883C5.49843 2.84105 7.21803 1.50328 8.93419 0.1655C9.2957 -0.117942 9.72924 -0.0276419 9.86432 0.362403C9.89138 0.462999 9.90223 0.567083 9.89648 0.670928C9.89648 2.94849 9.89648 5.22606 9.89648 7.50362C9.89648 9.78119 9.8982 12.0646 9.90163 14.3539V14.3551ZM3.28525 5.359H1.11109V9.62316H3.28525V5.359ZM8.78754 1.66046C8.76487 1.67347 8.74296 1.68771 8.72193 1.70311C7.31366 2.80008 5.90582 3.89957 4.4984 5.00156C4.4425 5.0587 4.41119 5.13455 4.41092 5.21352C4.41092 6.73231 4.41092 8.24985 4.41092 9.76864C4.40762 9.81427 4.41628 9.85997 4.43608 9.90143C4.45589 9.9429 4.48619 9.97878 4.52413 10.0057C5.51644 10.7741 6.50617 11.545 7.49334 12.3184L8.79268 13.3305L8.78754 1.66046ZM14.3065 7.20764C14.3143 6.6696 14.1007 5.74277 13.6093 4.88241C13.3632 4.45809 13.0604 4.06755 12.7087 3.72106C12.6365 3.63866 12.5394 3.58052 12.4314 3.55486C12.3233 3.5292 12.2097 3.53732 12.1067 3.57808C12.0038 3.61226 11.9142 3.67642 11.85 3.7619C11.7858 3.84737 11.7501 3.95001 11.7477 4.05592C11.7475 4.14764 11.7678 4.2383 11.8074 4.32151C11.8469 4.40472 11.9048 4.47845 11.9767 4.53752C12.5951 5.15011 13.0002 5.93681 13.1346 6.78624C13.3172 7.77382 13.1237 8.79243 12.5904 9.65075C12.3711 9.96593 12.1336 10.2687 11.879 10.5575C11.7885 10.663 11.743 10.7983 11.7519 10.9355C11.7607 11.0727 11.8233 11.2014 11.9266 11.295C11.9764 11.3432 12.0357 11.3813 12.1009 11.4068C12.1661 11.4324 12.2359 11.445 12.3062 11.4438C12.3765 11.4426 12.4458 11.4277 12.5101 11.4C12.5743 11.3723 12.6323 11.3323 12.6804 11.2824C12.9532 11.0013 13.2035 10.7003 13.4292 10.3819C13.9888 9.55669 14.2654 8.63739 14.3065 7.20638V7.20764Z" fill="#374151"/>
</svg>
