<svg width="92" height="24" viewBox="0 0 92 24" fill="none" xmlns="http://www.w3.org/2000/svg">
<path d="M90.1414 0H1.85859C0.832117 0 0 0.836998 0 1.86949V21.6861C0 22.7186 0.832117 23.5556 1.85859 23.5556H90.1414C91.1679 23.5556 92 22.7186 92 21.6861V1.86949C92 0.836998 91.1679 0 90.1414 0Z" fill="url(#paint0_linear_1170_1029)"/>
<path d="M59.8462 1.30859H89.026C89.5391 1.30859 89.9553 1.72709 89.9553 2.24334V20.9382C89.9553 21.4544 89.5391 21.873 89.026 21.873H59.8462V1.30859Z" fill="black"/>
<path d="M64.7598 17.5732V5.88037H67.2176V10.7048H72.2067V5.88037H74.6588V17.5732H72.2067V12.7431H67.2176V17.5732H64.7598ZM80.8061 17.5732H76.6852V5.88037H80.8401C82.0093 5.88037 83.0159 6.11447 83.8597 6.58263C84.7037 7.04699 85.3525 7.71499 85.8068 8.58662C86.2645 9.45825 86.4935 10.5012 86.4935 11.7154C86.4935 12.9334 86.2645 13.9801 85.8068 14.8555C85.3525 15.7309 84.6998 16.4027 83.8484 16.8709C83.0009 17.3391 81.9866 17.5732 80.8061 17.5732ZM79.143 15.455H80.7038C81.4303 15.455 82.0416 15.3256 82.5373 15.0668C83.0367 14.8041 83.4114 14.3988 83.6612 13.8507C83.9147 13.2988 84.0415 12.587 84.0415 11.7154C84.0415 10.8513 83.9147 10.1453 83.6612 9.59718C83.4114 9.04908 83.0386 8.64562 82.5429 8.38679C82.0472 8.12796 81.4361 7.99856 80.7096 7.99856H79.143V15.455Z" fill="#F8E531"/>
<path d="M11.772 17.5732V5.88037H19.4687V7.91862H14.2297V10.7048H18.9579V12.7431H14.2297V17.5732H11.772ZM28.3022 5.88037H30.7598V13.4738C30.7598 14.3264 30.5574 15.0725 30.1526 15.7119C29.7514 16.3514 29.1895 16.85 28.4667 17.2078C27.7439 17.5618 26.902 17.7388 25.9409 17.7388C24.9759 17.7388 24.1321 17.5618 23.4093 17.2078C22.6866 16.85 22.1247 16.3514 21.7235 15.7119C21.3224 15.0725 21.1219 14.3264 21.1219 13.4738V5.88037H23.5796V13.2626C23.5796 13.7079 23.6762 14.1038 23.8691 14.4501C24.0659 14.7965 24.3421 15.0687 24.6979 15.2666C25.0536 15.4645 25.4679 15.5635 25.9409 15.5635C26.4176 15.5635 26.8321 15.4645 27.1839 15.2666C27.5396 15.0687 27.814 14.7965 28.0069 14.4501C28.2037 14.1038 28.3022 13.7079 28.3022 13.2626V5.88037ZM32.782 17.5732V5.88037H35.2398V15.5349H40.2234V17.5732H32.782ZM41.8509 17.5732V5.88037H44.3087V15.5349H49.2923V17.5732H41.8509Z" fill="black"/>
<defs>
<linearGradient id="paint0_linear_1170_1029" x1="0" y1="11.7778" x2="92" y2="11.7778" gradientUnits="userSpaceOnUse">
<stop stop-color="#E1A232"/>
<stop offset="0.495" stop-color="#FAF287"/>
<stop offset="1" stop-color="#DF9A32"/>
</linearGradient>
</defs>
</svg>
