<svg width="60" height="60" viewBox="0 0 60 60" fill="none" xmlns="http://www.w3.org/2000/svg">
<circle cx="30" cy="30" r="30" fill="white"/>
<path d="M41.4591 19.5376C38.5638 16.6415 34.6394 15.01 30.5443 15C26.4492 14.9901 22.5169 16.6025 19.6076 19.4846V16.047H17.5133V23.3774H24.8436V21.283H20.7665C22.0179 19.9584 23.5265 18.9033 25.1999 18.182C26.8733 17.4608 28.6763 17.0887 30.4984 17.0886C37.8923 17.0886 43.9081 23.1044 43.9081 30.4983C43.9081 37.8923 37.8923 43.9081 30.4984 43.9081C23.1046 43.9081 17.0888 37.8923 17.0888 30.4983H15C14.9994 33.5641 15.908 36.5612 17.611 39.1105C19.3139 41.6598 21.7347 43.6468 24.567 44.8201C27.3994 45.9934 30.5161 46.3003 33.5229 45.702C36.5297 45.1037 39.2915 43.6272 41.4591 41.459C42.8987 40.0198 44.0407 38.311 44.8198 36.4304C45.599 34.5497 46 32.534 46 30.4983C46 28.4627 45.599 26.4469 44.8198 24.5663C44.0407 22.6856 42.8987 20.9769 41.4591 19.5376Z" fill="black"/>
</svg>
