<svg width="34" height="24" viewBox="0 0 34 24" fill="none" xmlns="http://www.w3.org/2000/svg">
<path d="M33.3131 0H0.686869C0.307522 0 0 0.852791 0 1.90476V22.0952C0 23.1472 0.307522 24 0.686869 24H33.3131C33.6925 24 34 23.1472 34 22.0952V1.90476C34 0.852791 33.6925 0 33.3131 0Z" fill="url(#paint0_linear_52_1707)"/>
<path d="M1.84619 2.30859C1.84619 1.75631 2.29391 1.30859 2.84619 1.30859H31.026C31.5391 1.30859 31.9553 1.72709 31.9553 2.24334V20.9382C31.9553 21.4544 31.5391 21.873 31.026 21.873H2.84619C2.29391 21.873 1.84619 21.4253 1.84619 20.873V2.30859Z" fill="black"/>
<path d="M7.75977 17.5732V5.88037H10.2176V10.7048H15.2067V5.88037H17.6588V17.5732H15.2067V12.7431H10.2176V17.5732H7.75977ZM23.8061 17.5732H19.6852V5.88037H23.8401C25.0093 5.88037 26.0159 6.11447 26.8597 6.58263C27.7037 7.04699 28.3525 7.71499 28.8068 8.58662C29.2645 9.45825 29.4935 10.5012 29.4935 11.7154C29.4935 12.9334 29.2645 13.9801 28.8068 14.8555C28.3525 15.7309 27.6998 16.4028 26.8484 16.8709C26.0009 17.3391 24.9866 17.5732 23.8061 17.5732ZM22.143 15.455H23.7038C24.4303 15.455 25.0416 15.3256 25.5373 15.0668C26.0367 14.8041 26.4114 14.3988 26.6612 13.8507C26.9147 13.2988 27.0415 12.587 27.0415 11.7154C27.0415 10.8513 26.9147 10.1453 26.6612 9.59718C26.4114 9.04908 26.0386 8.64563 25.5429 8.38679C25.0472 8.12796 24.4361 7.99856 23.7096 7.99856H22.143V15.455Z" fill="#F8E531"/>
<defs>
<linearGradient id="paint0_linear_52_1707" x1="0" y1="12" x2="34" y2="12" gradientUnits="userSpaceOnUse">
<stop stop-color="#E1A232"/>
<stop offset="0.495" stop-color="#FAF287"/>
<stop offset="1" stop-color="#DF9A32"/>
</linearGradient>
</defs>
</svg>

