<svg width="162" height="162" viewBox="0 0 162 162" fill="none" xmlns="http://www.w3.org/2000/svg">
<circle cx="81" cy="81" r="78.5" fill="#FE423F" stroke="white" stroke-width="5"/>
<path fill-rule="evenodd" clip-rule="evenodd" d="M116.256 56.0613L115.94 55.7572C115.712 55.518 115.439 55.3275 115.136 55.1973C114.832 55.0671 114.506 55 114.176 55C113.846 55 113.519 55.0671 113.216 55.1973C112.913 55.3275 112.639 55.518 112.412 55.7572L69.7531 98.331C69.2834 98.7997 68.6469 99.0629 67.9833 99.0629C67.3197 99.0629 66.6832 98.7997 66.2134 98.331L48.673 80.7054C48.2033 80.2367 47.5668 79.9735 46.9032 79.9735C46.2396 79.9735 45.6031 80.2367 45.1333 80.7054L44.7319 81.1068C44.2632 81.5766 44 82.2131 44 82.8767C44 83.5403 44.2632 84.1768 44.7319 84.6465L57.9785 97.8809L66.2134 106.128C66.6832 106.597 67.3197 106.86 67.9833 106.86C68.6469 106.86 69.2834 106.597 69.7531 106.128L116.256 59.6253C116.492 59.3923 116.679 59.1148 116.806 58.8089C116.934 58.503 117 58.1748 117 57.8433C117 57.5118 116.934 57.1836 116.806 56.8777C116.679 56.5719 116.492 56.2944 116.256 56.0613Z" fill="white"/>
</svg>
