<svg width="21" height="19" viewBox="0 0 21 19" fill="none" xmlns="http://www.w3.org/2000/svg">
<path d="M21 8.81036V10.1623C20.946 10.5149 20.9001 10.8676 20.8363 11.2171C20.5396 12.8296 19.8048 14.336 18.7077 15.581C18.5276 15.7891 18.336 15.9877 18.1379 16.1799C18.0752 16.2484 17.9988 16.3037 17.9132 16.3423C17.8276 16.381 17.7348 16.4023 17.6405 16.4048C17.5461 16.4073 17.4522 16.3911 17.3646 16.3571C17.277 16.323 17.1975 16.2719 17.131 16.2069C17.0648 16.1439 17.0123 16.0688 16.9764 15.9859C16.9406 15.9029 16.9221 15.8139 16.9221 15.724C16.9221 15.6341 16.9406 15.545 16.9764 15.4621C17.0123 15.3792 17.0648 15.3041 17.131 15.2411C17.82 14.5586 18.3877 13.77 18.8109 12.9074C19.1783 12.1457 19.4187 11.3323 19.5231 10.4975C19.7845 8.57594 19.3148 6.62787 18.2018 5.01835C17.9103 4.58784 17.5321 4.22405 17.203 3.81101C17.0878 3.68797 16.9993 3.54373 16.9427 3.38685C16.9036 3.24403 16.917 3.09247 16.9807 2.95822C17.0443 2.82398 17.1542 2.71546 17.2914 2.65133C17.4224 2.578 17.5755 2.55091 17.7247 2.57466C17.8739 2.5984 18.0101 2.67152 18.1101 2.78159C18.5684 3.26529 18.9986 3.77337 19.3987 4.30348C20.1935 5.44253 20.7072 6.74387 20.9001 8.10661C20.9411 8.34014 20.9673 8.57525 21 8.81036ZM12.6021 18.1832C12.6021 18.5009 12.5169 18.7741 12.2042 18.9266C11.8915 19.0791 11.6197 18.9759 11.3708 18.7821L7.21031 15.5508C6.39164 14.9154 5.58934 14.2895 4.77394 13.6667C4.68758 13.6064 4.584 13.5736 4.47758 13.573C3.49518 13.573 2.5226 13.573 1.54511 13.573C1.04081 13.573 0.603635 13.4316 0.287628 13.0265C0.10793 12.8066 0.00832783 12.5351 0.00436624 12.2545C0.00436624 10.4117 -0.00545781 8.56731 0.00436624 6.72452C0.00436624 5.95404 0.647843 5.4171 1.52546 5.41233C2.50786 5.41233 3.48044 5.41233 4.45794 5.41233C4.58346 5.4079 4.70458 5.36633 4.80505 5.29318C6.998 3.59867 9.18658 1.90415 11.3708 0.209633C11.8309 -0.149393 12.3827 -0.0350131 12.5546 0.459044C12.589 0.586465 12.6028 0.718305 12.5955 0.849842C12.5955 3.73476 12.5955 6.61967 12.5955 9.50459C12.5955 12.3895 12.5977 15.2818 12.6021 18.1816V18.1832ZM4.18123 6.78806H1.41412V12.1893H4.18123V6.78806ZM11.1841 2.10326C11.1553 2.11973 11.1274 2.13777 11.1006 2.15727C9.30829 3.54677 7.51649 4.93945 5.72524 6.33531C5.65409 6.40768 5.61424 6.50377 5.6139 6.60379C5.6139 8.52759 5.6139 10.4498 5.6139 12.3736C5.6097 12.4314 5.62072 12.4893 5.64592 12.5418C5.67113 12.5943 5.70969 12.6398 5.75799 12.6739C7.02092 13.6472 8.28059 14.6236 9.53697 15.6033L11.1907 16.8853L11.1841 2.10326ZM18.2083 9.12967C18.2182 8.44816 17.9464 7.27418 17.3209 6.18439C17.0077 5.64692 16.6223 5.15223 16.1748 4.71334C16.0828 4.60897 15.9593 4.53532 15.8217 4.50282C15.6842 4.47032 15.5396 4.48061 15.4085 4.53224C15.2776 4.57553 15.1635 4.6568 15.0818 4.76507C15.0001 4.87333 14.9547 5.00334 14.9517 5.1375C14.9513 5.25367 14.9772 5.36851 15.0276 5.47391C15.0779 5.57931 15.1515 5.67271 15.2431 5.74752C16.0301 6.52347 16.5457 7.51996 16.7167 8.5959C16.9491 9.84684 16.7029 11.1371 16.0241 12.2243C15.745 12.6235 15.4427 13.007 15.1187 13.3728C15.0036 13.5065 14.9457 13.6778 14.9569 13.8516C14.9682 14.0254 15.0478 14.1884 15.1792 14.307C15.2427 14.3681 15.3182 14.4163 15.4012 14.4486C15.4842 14.481 15.573 14.4969 15.6624 14.4955C15.7519 14.494 15.8401 14.4751 15.9219 14.44C16.0037 14.4049 16.0774 14.3543 16.1387 14.2911C16.4859 13.935 16.8045 13.5537 17.0917 13.1504C17.8039 12.1051 18.1559 10.9407 18.2083 9.12809V9.12967Z" fill="#333333"/>
</svg>
