<svg width="20" height="13" viewBox="0 0 20 13" fill="none" xmlns="http://www.w3.org/2000/svg">
<path d="M19.2759 1.87386C18.8214 1.62062 18.2839 1.62764 17.8366 1.89145H17.8357L14.4768 3.87609V3.51732C14.4768 1.57839 12.8741 0 10.9054 0H3.57143C1.60268 0 0 1.57839 0 3.51732V9.48268C0 11.4216 1.60268 13 3.57143 13H10.9054C12.8741 13 14.4768 11.4216 14.4768 9.48268V9.12391L17.8366 11.1086C18.2839 11.3724 18.8214 11.3785 19.2759 11.1261C19.7295 10.8729 20 10.4148 20 9.90211V3.09776C20 2.58513 19.7294 2.12711 19.2759 1.87386ZM18.5714 9.90212L14.1303 7.27916C13.9088 7.14814 13.6347 7.14462 13.4106 7.27037C13.1865 7.39523 13.049 7.62915 13.049 7.88239V9.48365C13.049 10.647 12.0874 11.594 10.9062 11.594L3.5713 11.5932C2.39004 11.5932 1.42844 10.6461 1.42844 9.48277V3.51741C1.42844 2.35405 2.39004 1.40702 3.5713 1.40702H10.9052C12.0865 1.40702 13.0481 2.35405 13.0481 3.51741V5.11867C13.0481 5.37192 13.1865 5.60583 13.4097 5.73069C13.6338 5.85556 13.9088 5.85292 14.1293 5.7219L18.5714 3.09804V9.90212Z" fill="#374151"/>
</svg>
