<svg width="27" height="20" viewBox="0 0 27 20" fill="none" xmlns="http://www.w3.org/2000/svg">
<path d="M5.78571 0C2.59714 0 0 2.59714 0 5.78571V14.1429C0 17.3314 2.59714 19.9286 5.78571 19.9286H21.2143C24.4029 19.9286 27 17.3314 27 14.1429V5.78571C27 2.59714 24.4029 0 21.2143 0H5.78571ZM5.78571 1.92857H21.2143C23.3678 1.92857 25.0714 3.63221 25.0714 5.78571V14.1429C25.0714 16.2964 23.3678 18 21.2143 18H5.78571C3.63221 18 1.92857 16.2964 1.92857 14.1429V5.78571C1.92857 3.63221 3.63221 1.92857 5.78571 1.92857ZM11.2801 5.14286C11.151 5.13883 11.0224 5.16081 10.9019 5.20746C10.7814 5.25411 10.6715 5.32449 10.5787 5.41444C10.486 5.50438 10.4123 5.61204 10.3619 5.73104C10.3116 5.85003 10.2857 5.97794 10.2857 6.10714V13.8214C10.2844 14.0607 10.3721 14.2919 10.5318 14.4701C10.6914 14.6483 10.9116 14.7608 11.1496 14.7857C11.3439 14.8067 11.5401 14.7682 11.7121 14.6752L18.7835 10.8181C18.9366 10.7354 19.0646 10.6129 19.1538 10.4635C19.2429 10.3141 19.29 10.1433 19.29 9.96931C19.29 9.79529 19.2429 9.62453 19.1538 9.4751C19.0646 9.32567 18.9366 9.20315 18.7835 9.12054L11.7121 5.26339C11.5796 5.18983 11.4316 5.14854 11.2801 5.14286ZM12.2143 7.73438L16.3025 9.96429L12.2143 12.2043V7.73438Z" fill="white"/>
</svg>
